<svg width="6277" height="2164" viewBox="0 0 6277 2164" fill="none" xmlns="http://www.w3.org/2000/svg">
<g clip-path="url(#clip0_1128_3840)">
<path d="M2471.84 781.344C2471.84 736.064 2497.07 713.424 2547.51 713.424C2597.96 713.424 2623.18 736.064 2623.18 781.344C2623.18 802.924 2616.88 819.714 2604.26 831.714C2591.65 843.714 2572.73 849.714 2547.51 849.714C2497.07 849.721 2471.84 826.931 2471.84 781.344ZM2616.84 1422.74H2477.84V913.094H2616.84V1422.74Z" fill="#FAF9F8"/>
<path d="M3219 1422.74H3079.95V1125.03C3079.95 1088.27 3073.8 1060.69 3061.49 1042.29C3049.19 1023.9 3029.81 1014.71 3003.36 1014.71C2967.81 1014.71 2941.98 1027.78 2925.87 1053.92C2909.77 1080.06 2901.71 1123.06 2901.71 1182.92V1422.7H2762.71V913.094H2868.92L2887.61 978.274H2895.36C2909.04 954.881 2928.8 936.571 2954.63 923.344C2980.47 910.118 3010.1 903.507 3043.52 903.514C3119.8 903.514 3171.47 928.434 3198.52 978.274H3210.82C3224.5 954.574 3244.64 936.187 3271.23 923.114C3297.83 910.041 3327.83 903.507 3361.23 903.514C3418.97 903.514 3462.66 918.331 3492.29 947.964C3521.93 977.598 3536.74 1025.08 3536.74 1090.42V1422.74H3397.24V1125.03C3397.24 1088.27 3391.09 1060.69 3378.78 1042.29C3366.48 1023.9 3347.1 1014.71 3320.66 1014.71C3286.62 1014.71 3261.17 1026.87 3244.3 1051.18C3227.44 1075.5 3219 1114.11 3219 1167.03V1422.74Z" fill="#FAF9F8"/>
<path d="M4135.74 1422.74H3996.74V1125.03C3996.74 1088.27 3990.59 1060.69 3978.28 1042.29C3965.98 1023.9 3946.6 1014.71 3920.16 1014.71C3884.6 1014.71 3858.77 1027.78 3842.66 1053.92C3826.56 1080.06 3818.5 1123.06 3818.5 1182.92V1422.7H3679.5V913.094H3785.72L3804.41 978.274H3812.16C3825.84 954.881 3845.6 936.571 3871.42 923.344C3897.25 910.118 3926.88 903.507 3960.32 903.514C4036.6 903.514 4088.26 928.434 4115.32 978.274H4127.63C4141.31 954.574 4161.44 936.187 4188.03 923.114C4214.63 910.041 4244.63 903.507 4278.03 903.514C4335.77 903.514 4379.46 918.331 4409.09 947.964C4438.73 977.598 4453.54 1025.08 4453.54 1090.42V1422.74H4313.95V1125.03C4313.95 1088.27 4307.8 1060.69 4295.49 1042.29C4283.19 1023.9 4263.81 1014.71 4237.36 1014.71C4203.32 1014.71 4177.87 1026.87 4161 1051.18C4144.14 1075.5 4135.72 1114.11 4135.74 1167.03V1422.74Z" fill="#FAF9F8"/>
<path d="M4957.21 1422.74L4938.52 1357.55H4931.23C4916.33 1381.27 4895.21 1399.58 4867.86 1412.49C4840.52 1425.41 4809.37 1431.86 4774.41 1431.86C4714.55 1431.86 4669.42 1415.83 4639.02 1383.77C4608.63 1351.71 4593.43 1305.59 4593.43 1245.41V913.094H4732.43V1210.77C4732.43 1247.54 4738.97 1275.12 4752.03 1293.5C4765.1 1311.89 4785.92 1321.08 4814.49 1321.08C4853.39 1321.08 4881.5 1308.08 4898.82 1282.08C4916.14 1256.08 4924.81 1213 4924.82 1152.84V913.094H5063.82V1422.74H4957.21Z" fill="#FAF9F8"/>
<path d="M5371.14 1431.86C5311.26 1431.86 5264.23 1408.61 5230.05 1362.11C5195.87 1315.61 5178.78 1251.19 5178.76 1168.83C5178.76 1085.25 5196.16 1020.14 5230.96 973.494C5265.76 926.848 5313.71 903.514 5374.79 903.494C5438.91 903.494 5487.84 928.414 5521.57 978.254H5526.13C5519.14 940.254 5515.65 906.371 5515.65 876.604V713.424H5655.14V1422.74H5548.47L5521.57 1356.64H5515.65C5484.05 1406.8 5435.88 1431.87 5371.14 1431.86ZM5419.95 1321.08C5455.51 1321.08 5481.57 1310.75 5498.13 1290.08C5514.69 1269.42 5523.73 1234.31 5525.25 1184.77V1169.77C5525.25 1115.06 5516.82 1075.86 5499.95 1052.16C5483.09 1028.47 5455.66 1016.62 5417.67 1016.6C5386.67 1016.6 5362.59 1029.75 5345.41 1056.03C5328.24 1082.32 5319.66 1120.54 5319.66 1170.68C5319.66 1220.82 5328.33 1258.43 5345.66 1283.51C5363 1308.59 5387.76 1321.12 5419.95 1321.08Z" fill="#FAF9F8"/>
<path d="M6084.11 903.514C6144.29 903.514 6191.4 926.991 6225.43 973.944C6259.47 1020.9 6276.49 1085.26 6276.49 1167.03C6276.49 1251.23 6258.94 1316.42 6223.84 1362.6C6188.74 1408.79 6140.95 1431.89 6080.47 1431.89C6020.59 1431.89 5973.64 1410.16 5939.6 1366.7H5930.03L5906.78 1422.77H5800.56V713.424H5939.56V878.424C5939.56 899.398 5937.74 932.981 5934.09 979.174H5939.56C5972.11 928.741 6020.29 903.521 6084.11 903.514ZM6039.44 1014.74C6005.1 1014.74 5980.02 1025.31 5964.22 1046.43C5948.42 1067.56 5940.22 1102.43 5939.6 1151.03V1166.03C5939.6 1220.73 5947.73 1259.94 5963.99 1283.64C5980.25 1307.35 6006.01 1319.2 6041.26 1319.2C6069.82 1319.2 6092.54 1306.06 6109.41 1279.77C6126.29 1253.49 6134.72 1215.27 6134.71 1165.12C6134.71 1114.97 6126.21 1077.36 6109.19 1052.29C6092.18 1027.23 6068.93 1014.71 6039.44 1014.74Z" fill="#FAF9F8"/>
<path d="M1082.44 0.51416C485.493 0.51416 0.953125 485.034 0.953125 1082.03C0.953125 1679.03 485.493 2163.49 1082.44 2163.49C1679.38 2162.54 2162.95 1678.94 2163.95 1082.03C2163.95 485.034 1679.38 0.51416 1082.44 0.51416ZM1082.44 47.7442C1652.95 48.6842 2115.76 511.504 2116.7 1082.03C2116.7 1653.47 1653.88 2116.29 1082.44 2116.29C511.003 2116.29 48.1831 1653.44 48.1831 1082.03C48.1831 510.624 511.003 47.7442 1082.44 47.7442V47.7442Z" fill="#FAF9F8"/>
<path d="M1082.44 2044.48C1026.42 2044.46 970.494 2039.72 915.264 2030.31C911 2029.87 906.954 2028.2 903.606 2025.53C900.258 2022.85 897.748 2019.27 896.374 2015.2C893.534 2006.7 894.484 1998.2 900.144 1991.58C902.863 1988.36 906.417 1985.95 910.417 1984.62C914.416 1983.29 918.706 1983.09 922.814 1984.03C1028.16 2001.97 1135.78 2001.97 1241.12 1984.03C1254.34 1982.14 1266.62 1990.64 1268.51 2002.92C1270.4 2016.14 1261.9 2028.42 1249.62 2030.31C1194.4 2039.76 1138.47 2044.5 1082.44 2044.48V2044.48ZM613.014 1919.8C609.234 1919.8 604.514 1918.86 601.674 1916.97C504.394 1860.29 418.434 1787.56 345.674 1701.61C337.174 1691.22 338.124 1677.06 348.514 1668.55C358.904 1660.04 373.074 1661 381.574 1671.39C449.968 1753.03 532.12 1822.07 624.314 1875.39C633.764 1881.05 637.534 1891.39 635.654 1901.83C633.774 1912.27 624.344 1919.8 613.014 1919.8ZM1552.82 1919.8C1542.43 1919.8 1532.98 1912.24 1530.15 1902.8C1527.32 1893.36 1532.04 1881.07 1541.48 1876.35C1633.73 1822.71 1716.14 1753.72 1785.17 1672.35C1790.84 1665.74 1799.34 1661.96 1807.84 1663.85C1811.93 1664.79 1815.74 1666.64 1819.01 1669.25C1822.29 1671.87 1824.92 1675.19 1826.73 1678.96C1828.12 1682.97 1828.41 1687.26 1827.58 1691.41C1826.75 1695.57 1824.83 1699.42 1822.01 1702.58C1750.05 1788.65 1663.37 1861.25 1566.01 1916.99C1560.34 1917.93 1556.56 1918.88 1552.79 1919.82L1552.82 1919.8ZM200.254 1428.64C189.864 1428.64 181.364 1422.03 177.584 1412.64C138.854 1306.85 119.024 1195.39 119.964 1082.99C119.964 1076.38 122.794 1070.71 126.574 1065.99C131.294 1061.27 136.964 1059.38 143.574 1059.38C146.683 1059.35 149.769 1059.94 152.648 1061.12C155.528 1062.29 158.144 1064.03 160.343 1066.23C162.543 1068.43 164.282 1071.04 165.458 1073.92C166.634 1076.8 167.224 1079.88 167.194 1082.99C167.221 1189.66 186.098 1295.49 222.954 1395.58C227.684 1407.86 221.074 1421.09 208.794 1425.81C205.014 1427.7 203.124 1427.7 200.294 1428.64H200.254ZM1965.58 1427.7C1962.71 1427.84 1959.84 1427.5 1957.08 1426.7C1951.41 1424.81 1946.69 1420.09 1943.85 1414.43C1941.19 1408.79 1940.85 1402.32 1942.91 1396.43C1979.75 1296.31 1997.69 1189.58 1997.69 1082.84V1081.03C1997.82 1074.86 2000.36 1068.97 2004.78 1064.65C2009.19 1060.32 2015.13 1057.9 2021.31 1057.9C2027.49 1057.9 2033.42 1060.32 2037.84 1064.65C2042.25 1068.97 2044.8 1074.86 2044.92 1081.03V1082.92C2044.92 1195.32 2025.08 1306.78 1987.3 1412.57C1984.47 1421.07 1975.02 1426.73 1965.58 1427.68V1427.7ZM199.304 785.424C195.412 785.382 191.587 784.418 188.14 782.612C184.693 780.806 181.723 778.209 179.474 775.034C177.182 771.957 175.718 768.344 175.221 764.539C174.723 760.735 175.21 756.867 176.634 753.304C215.364 647.514 271.094 549.304 343.814 463.304C345.761 460.894 348.176 458.902 350.913 457.448C353.65 455.995 356.653 455.109 359.741 454.845C362.828 454.58 365.938 454.943 368.882 455.91C371.826 456.877 374.544 458.43 376.874 460.474C386.324 468.974 388.214 484.084 379.714 493.474C310.764 575.734 256.954 668.294 221.034 769.364C219.652 774.041 216.783 778.139 212.861 781.037C208.94 783.936 204.18 785.476 199.304 785.424ZM1964.63 782.584C1959.8 782.53 1955.08 781.073 1951.05 778.391C1947.03 775.709 1943.87 771.917 1941.95 767.474C1905.12 667.354 1851.28 573.844 1782.33 492.614C1776.66 486.004 1775.72 477.504 1778.55 469.004C1781.38 461.444 1788 454.834 1796.55 453.884C1805.1 452.934 1813.55 455.774 1819.22 462.394C1891.84 548.08 1948.75 645.915 1987.34 751.394C1992.06 763.674 1985.45 776.894 1973.17 781.624C1970.34 781.624 1967.51 782.564 1964.67 782.564L1964.63 782.584ZM612.064 292.374C601.674 292.374 592.234 284.814 589.394 274.424C586.554 264.034 591.284 253.644 600.734 247.984C697.702 191.497 803.843 152.491 914.314 132.744C922.814 130.854 931.314 134.634 936.984 141.244C942.654 147.854 943.594 156.364 940.764 164.864C937.934 173.364 931.314 179.034 922.814 179.974C817.701 198.834 716.692 235.915 624.344 289.544C619.624 291.424 615.844 292.374 612.064 292.374ZM1550.93 291.424C1547.15 291.424 1542.43 290.484 1539.59 288.594C1446.75 235.512 1345.47 198.771 1240.18 179.974C1227.9 177.144 1220.34 164.864 1222.18 152.584C1224.02 140.304 1236.35 131.804 1248.63 133.694C1359.32 152.766 1465.8 191.129 1563.21 247.034C1572.65 252.704 1577.37 263.094 1574.54 273.484C1572.73 278.409 1569.54 282.713 1565.36 285.89C1561.18 289.068 1556.19 290.988 1550.95 291.424H1550.93Z" fill="#FAF9F8"/>
<path d="M1082.44 1919.8C619.623 1919.8 244.643 1544.8 244.643 1082C244.643 619.204 619.643 244.204 1082.44 244.204C1545.24 244.204 1920.24 619.204 1920.24 1082C1919.3 1543.88 1544.32 1918.86 1082.44 1919.8ZM1082.44 291.424C646.073 291.424 291.873 645.624 291.873 1082C291.873 1518.38 646.073 1872.57 1082.44 1872.57C1518.81 1872.57 1873.01 1518.37 1873.01 1082C1872.07 645.624 1518.81 292.374 1082.44 291.424V291.424Z" fill="#FAF9F8"/>
<path d="M1038.05 1318.13C1036.11 1318.28 1034.17 1317.96 1032.38 1317.19C946.383 1294.52 878.383 1229.35 851.033 1145.28C837.477 1103.76 834.611 1059.49 842.7 1016.56C850.79 973.638 869.573 933.446 897.313 899.704V898.764C902.983 892.154 908.653 885.544 914.313 879.874L1124.95 669.244C1157.36 636.723 1197.77 613.32 1242.11 601.396C1286.44 589.471 1333.14 589.446 1377.49 601.324C1421.83 613.201 1462.27 636.56 1494.71 669.047C1527.15 701.534 1550.46 741.999 1562.27 786.364C1574.29 830.656 1574.32 877.344 1562.38 921.654C1550.43 965.964 1526.93 1006.31 1494.27 1038.55L1283.63 1249.18C1277.02 1255.79 1270.41 1261.46 1263.8 1267.13C1259.27 1270.68 1253.6 1272.44 1247.86 1272.1C1242.12 1271.75 1236.7 1269.31 1232.64 1265.24C1228.57 1261.17 1226.13 1255.76 1225.78 1250.02C1225.43 1244.27 1227.2 1238.6 1230.74 1234.07C1274.19 1180.23 1289.3 1109.39 1271.36 1043.27C1269.47 1034.77 1271.36 1026.27 1277.02 1020.6L1376.2 921.434C1393.43 903.429 1402.88 879.373 1402.53 854.457C1402.18 829.541 1392.04 805.764 1374.31 788.254C1337.47 751.414 1277.97 750.474 1241.13 786.364L1030.49 997.034C1012.6 1014.96 1002.56 1039.25 1002.56 1064.57C1002.56 1089.89 1012.6 1114.18 1030.49 1132.1C1062.6 1164.21 1112.66 1168.94 1150.49 1144.38C1159.93 1138.71 1172.21 1139.66 1179.77 1147.21C1183.61 1150.98 1186 1155.98 1186.52 1161.34C1187.03 1166.69 1185.65 1172.06 1182.6 1176.49C1176.93 1184.99 1171.27 1192.55 1164.65 1199.16L1053.2 1310.62C1050.37 1316.28 1043.75 1318.17 1038.09 1318.17L1038.05 1318.13ZM933.203 929.934C911.438 956.786 896.539 988.533 889.793 1022.43C883.046 1056.33 884.656 1091.37 894.483 1124.5C914.313 1191.56 965.323 1245.4 1031.48 1268.07L1091.93 1207.62C1066.92 1206.28 1042.69 1198.43 1021.64 1184.84C1000.6 1171.26 983.461 1152.41 971.933 1130.17C949.263 1084.83 952.093 1030.05 980.433 987.554C986.103 979.044 991.763 971.494 998.433 964.884L1209.06 755.194C1264.78 699.464 1355.46 699.464 1411.19 755.194C1466.92 810.924 1466.91 901.594 1411.19 957.324L1321.41 1047.03C1325.21 1065.05 1327.1 1083.41 1327.07 1101.81C1327.22 1117.01 1325.96 1132.19 1323.3 1147.15L1462.14 1009.25C1546.21 925.194 1546.21 789.174 1462.14 706.054C1378.08 622.034 1242.07 622.034 1158.95 706.034L948.323 916.674C942.653 918.554 937.933 923.284 933.203 929.894V929.934Z" fill="#FAF9F8"/>
<path d="M1099.44 1207.62C1046.55 1207.62 998.383 1179.29 973.823 1133C949.263 1086.71 951.153 1031 980.433 986.604C982.142 983.956 984.395 981.702 987.043 979.994C1008.66 965.996 1033.62 958.005 1059.35 956.844C1085.08 955.682 1110.65 961.391 1133.44 973.384C1179.73 997.934 1208.06 1046.11 1208.06 1099C1208.06 1126.39 1199.56 1153.78 1184.45 1177.4C1182.75 1180.05 1180.49 1182.31 1177.84 1184.01C1154.22 1199.12 1127.78 1207.62 1099.44 1207.62ZM1017.27 1016.83C995.543 1054.61 1001.21 1101.83 1032.38 1132.06C1062.6 1162.28 1110.78 1168.9 1147.61 1147.17C1156.11 1132.06 1160.84 1116 1160.84 1099C1160.84 1065 1142.84 1032.88 1112.66 1015.88C1082.48 998.884 1046.55 999.824 1017.27 1016.88V1016.83Z" fill="#FAF9F8"/>
<path d="M1294.95 1061.22C1293.01 1061.36 1291.06 1061.02 1289.28 1060.22C1280.78 1058.34 1275.11 1051.72 1272.28 1043.22C1262.53 1007.01 1243.43 973.994 1216.91 947.474C1190.39 920.954 1157.38 901.861 1121.16 892.104C1112.65 890.214 1106.99 883.604 1105.1 875.104C1103.21 866.604 1105.1 858.104 1111.71 852.434L1209.95 753.304C1265.68 697.574 1356.35 697.574 1412.08 753.304C1467.81 809.034 1467.81 899.704 1412.08 955.434L1312.95 1053.66C1307.28 1058.39 1301.61 1061.22 1294.95 1061.22ZM1170.27 859.094C1230.69 885.516 1278.92 933.748 1305.34 994.164L1377.12 921.434C1401.68 897.814 1412.12 861.924 1403.57 828.864C1399.29 812.519 1390.73 797.607 1378.78 785.658C1366.83 773.709 1351.92 765.152 1335.57 760.864C1302.57 752.364 1266.62 761.804 1243.01 787.304L1170.27 859.094Z" fill="#FAF9F8"/>
<path d="M1099.44 1207.62C1046.55 1207.62 998.383 1179.29 973.823 1133C949.263 1086.71 951.153 1031 980.433 986.604C982.142 983.956 984.395 981.702 987.043 979.994C1008.66 965.996 1033.62 958.005 1059.35 956.844C1085.08 955.682 1110.65 961.391 1133.44 973.384C1179.73 997.934 1208.06 1046.11 1208.06 1099C1208.06 1126.39 1199.56 1153.78 1184.45 1177.4C1182.75 1180.05 1180.49 1182.31 1177.84 1184.01C1154.22 1199.12 1127.78 1207.62 1099.44 1207.62ZM1017.27 1016.83C995.543 1054.61 1001.21 1101.83 1032.38 1132.06C1062.6 1162.28 1110.78 1168.9 1147.61 1147.17C1156.11 1132.06 1160.84 1116 1160.84 1099C1160.84 1065 1142.84 1032.88 1112.66 1015.88C1082.48 998.884 1046.55 999.824 1017.27 1016.88V1016.83Z" fill="#FAF9F8"/>
<path d="M1294.95 1061.22C1293.01 1061.36 1291.06 1061.02 1289.28 1060.22C1280.78 1058.34 1275.11 1051.72 1272.28 1043.22C1262.53 1007.01 1243.43 973.994 1216.91 947.474C1190.39 920.954 1157.38 901.861 1121.16 892.104C1112.65 890.214 1106.99 883.604 1105.1 875.104C1103.21 866.604 1105.1 858.104 1111.71 852.434L1209.95 753.304C1265.68 697.574 1356.35 697.574 1412.08 753.304C1467.81 809.034 1467.81 899.704 1412.08 955.434L1312.95 1053.66C1307.28 1058.39 1301.61 1061.22 1294.95 1061.22ZM1170.27 859.094C1230.69 885.516 1278.92 933.748 1305.34 994.164L1377.12 921.434C1401.68 897.814 1412.12 861.924 1403.57 828.864C1399.29 812.519 1390.73 797.607 1378.78 785.658C1366.83 773.709 1351.92 765.152 1335.57 760.864C1302.57 752.364 1266.62 761.804 1243.01 787.304L1170.27 859.094Z" fill="#FAF9F8"/>
<path d="M854.813 1571.27C803.038 1571.35 752.41 1556.03 709.357 1527.28C666.304 1498.52 632.77 1457.61 613.013 1409.75C572.393 1312.47 595.063 1199.12 669.683 1124.5L880.313 913.874C886.923 907.264 893.533 901.594 900.143 895.934C904.672 892.436 910.32 890.706 916.031 891.068C921.743 891.43 927.127 893.86 931.178 897.903C935.228 901.946 937.668 907.326 938.04 913.037C938.413 918.748 936.694 924.399 933.203 928.934C889.753 982.774 874.643 1053.61 892.593 1119.73C894.483 1128.23 892.593 1136.73 886.923 1142.4L787.753 1241.63C770.527 1259.64 761.069 1283.69 761.421 1308.6C761.773 1333.52 771.906 1357.3 789.633 1374.8C826.473 1411.64 885.983 1412.59 922.813 1376.69L1133.44 1167.03C1138.04 1162.43 1142.16 1157.36 1145.72 1151.91C1156.11 1135.91 1160.84 1117.91 1161.78 1099.02C1161.78 1064.02 1141.94 1031.96 1111.72 1014.96C1096.69 1006.72 1079.69 1002.72 1062.55 1003.38C1045.42 1004.05 1028.79 1009.36 1014.43 1018.74C1004.99 1024.4 992.713 1023.46 985.153 1015.9C981.314 1012.14 978.926 1007.13 978.409 1001.78C977.891 996.425 979.277 991.059 982.323 986.624C987.993 978.124 993.653 970.564 1000.26 963.954L1110.78 852.504C1113.7 849.589 1117.31 847.455 1121.27 846.3C1125.23 845.145 1129.41 845.005 1133.44 845.894C1219.44 868.554 1287.44 933.734 1314.79 1017.79C1328.35 1059.32 1331.22 1103.59 1323.13 1146.52C1315.04 1189.44 1296.26 1229.63 1268.51 1263.37V1264.31C1262.85 1270.93 1257.18 1277.54 1251.51 1283.2L1039.95 1493.81C990.833 1543.88 924.713 1571.27 854.823 1571.27H854.813ZM842.533 1019.66L703.683 1157.56C621.513 1241.63 622.453 1375.75 705.573 1458.87C788.693 1541.99 922.813 1542.93 1006.88 1460.76L1217.51 1250.13C1222.23 1245.4 1226.95 1239.74 1231.68 1234.07L1232.62 1233.07C1254.39 1206.22 1269.29 1174.48 1276.03 1140.58C1282.78 1106.68 1281.18 1071.64 1271.35 1038.5C1251.51 971.444 1200.51 917.604 1134.35 894.934L1073.9 956.334C1098.92 957.679 1123.15 965.532 1144.19 979.116C1165.24 992.7 1182.38 1011.54 1193.9 1033.78C1216.57 1079.12 1213.74 1133.9 1185.4 1176.4C1179.74 1184.9 1174.07 1192.46 1167.46 1199.07L956.833 1409.7C901.103 1465.43 810.423 1465.43 754.703 1409.7C698.983 1353.97 698.973 1263.3 754.703 1207.57L844.433 1117.84C836.709 1085.62 836.064 1052.11 842.543 1019.61L842.533 1019.66Z" fill="#FAF9F8"/>
<path d="M1099.44 1207.62C1046.55 1207.62 998.383 1179.29 973.823 1133C949.263 1086.71 951.153 1031 980.433 986.604C982.142 983.956 984.395 981.703 987.043 979.994C1014.6 962.117 1047.45 954.239 1080.11 957.679C1112.78 961.118 1143.27 975.667 1166.5 998.891C1189.72 1022.12 1204.27 1052.61 1207.71 1085.27C1211.15 1117.94 1203.27 1150.79 1185.39 1178.34C1183.69 1181 1181.43 1183.25 1178.78 1184.95C1154.22 1199.12 1127.78 1207.62 1099.44 1207.62ZM1017.27 1016.83C995.543 1054.61 1001.21 1101.83 1032.38 1132.06C1062.6 1162.28 1110.78 1168.9 1147.61 1147.17C1156.11 1132.06 1160.84 1116 1160.84 1099C1160.84 1065 1141.94 1033.83 1112.66 1016.83C1098.16 1008.48 1081.71 1004.08 1064.97 1004.08C1048.23 1004.08 1031.78 1008.48 1017.27 1016.83V1016.83Z" fill="#FAF9F8"/>
<path d="M854.814 1452.26C826.693 1452.25 799.207 1443.9 775.836 1428.26C752.465 1412.63 734.259 1390.4 723.524 1364.41C701.794 1311.52 714.074 1250.13 754.694 1208.57L852.954 1110.33C858.624 1104.67 868.064 1101.83 875.624 1103.72C884.124 1105.61 889.784 1112.22 892.624 1120.72C902.38 1156.94 921.473 1189.96 947.992 1216.48C974.512 1243 1007.53 1262.1 1043.74 1271.85C1052.24 1273.74 1057.91 1280.35 1060.74 1288.85C1062.62 1297.35 1060.74 1305.85 1055.07 1311.52L956.844 1409.75C929.817 1436.88 893.132 1452.16 854.844 1452.26H854.814ZM859.534 1169.84L786.804 1241.62C769.578 1259.63 760.122 1283.69 760.476 1308.6C760.829 1333.52 770.964 1357.29 788.694 1374.8C825.534 1411.64 885.034 1412.58 921.874 1376.69L994.604 1304.91C934.187 1278.49 885.955 1230.26 859.534 1169.84V1169.84Z" fill="#FAF9F8"/>
<path d="M1099.44 1207.62C1046.55 1207.62 998.383 1179.29 973.823 1133C949.263 1086.71 951.153 1031 980.433 986.604C982.142 983.956 984.395 981.703 987.043 979.994C1014.6 962.117 1047.45 954.239 1080.11 957.679C1112.78 961.118 1143.27 975.667 1166.5 998.891C1189.72 1022.12 1204.27 1052.61 1207.71 1085.27C1211.15 1117.94 1203.27 1150.79 1185.39 1178.34C1183.69 1181 1181.43 1183.25 1178.78 1184.95C1154.22 1199.12 1127.78 1207.62 1099.44 1207.62ZM1017.27 1016.83C995.543 1054.61 1001.21 1101.83 1032.38 1132.06C1062.6 1162.28 1110.78 1168.9 1147.61 1147.17C1156.11 1132.06 1160.84 1116 1160.84 1099C1160.84 1065 1141.94 1033.83 1112.66 1016.83C1098.16 1008.48 1081.71 1004.08 1064.97 1004.08C1048.23 1004.08 1031.78 1008.48 1017.27 1016.83V1016.83Z" fill="#FAF9F8"/>
<path d="M854.814 1452.26C826.693 1452.25 799.207 1443.9 775.836 1428.26C752.465 1412.63 734.259 1390.4 723.524 1364.41C701.794 1311.52 714.074 1250.13 754.694 1208.57L852.954 1110.33C858.624 1104.67 868.064 1101.83 875.624 1103.72C884.124 1105.61 889.784 1112.22 892.624 1120.72C902.38 1156.94 921.473 1189.96 947.992 1216.48C974.512 1243 1007.53 1262.1 1043.74 1271.85C1052.24 1273.74 1057.91 1280.35 1060.74 1288.85C1062.62 1297.35 1060.74 1305.85 1055.07 1311.52L956.844 1409.75C929.817 1436.88 893.132 1452.16 854.844 1452.26H854.814ZM859.534 1169.84L786.804 1241.62C769.578 1259.63 760.122 1283.69 760.476 1308.6C760.829 1333.52 770.964 1357.29 788.694 1374.8C825.534 1411.64 885.034 1412.58 921.874 1376.69L994.604 1304.91C934.187 1278.49 885.955 1230.26 859.534 1169.84V1169.84Z" fill="#FAF9F8"/>
</g>
<defs>
<clipPath id="clip0_1128_3840">
<rect width="6275.54" height="2162.98" fill="white" transform="translate(0.953125 0.51416)"/>
</clipPath>
</defs>
</svg>
